<?xml version="1.0" encoding="UTF-8" standalone="no"?>
<svg viewBox="0 0 640 400" data-background-color="#0a1627" preserveAspectRatio="xMidYMid meet" height="400" width="640" xmlns="http://www.w3.org/2000/svg" xmlns:xlink="http://www.w3.org/1999/xlink"><rect width="640" height="400" x="0" y="0" opacity="1" fill="#0a1627" data-fill-palette-color="background" id="background"></rect><g id="tight-bounds" transform="matrix(1,0,0,1,122.24000000000001,113.67579920679887)"><svg viewBox="0 0 395.52 172.64840158640226" height="172.64840158640226" width="395.52"><g><svg viewBox="0 0 395.52 172.64840158640226" height="172.64840158640226" width="395.52"><g><svg viewBox="0 0 395.52 172.64840158640226" height="172.64840158640226" width="395.52"><g><svg viewBox="0 0 395.52 172.64840158640226" height="172.64840158640226" width="395.52"><g><svg viewBox="0 0 395.52 172.64840158640226" height="172.64840158640226" width="395.52"><g transform="matrix(1,0,0,1,0,0)"><svg width="395.52" viewBox="3.6599998474121094 -31.25 86.17999267578125 34.619998931884766" height="172.64840158640226" data-palette-color="#fe0039"><svg></svg><g class="undefined-text-0" data-fill-palette-color="primary" id="text-0"><path xmlns="http://www.w3.org/2000/svg" d="M3.66 0v-3.91h6.62v-22.58h-6.62v-3.91h18.26c2.167 0 4.073 0.053 5.72 0.16 1.64 0.107 3.127 0.34 4.46 0.7v0c3.5 0.96 6.123 2.613 7.87 4.96 1.74 2.34 2.61 5.463 2.61 9.37v0c0 1.793-0.207 3.45-0.62 4.97-0.42 1.52-1.057 2.887-1.91 4.1-0.853 1.213-1.927 2.25-3.22 3.11-1.293 0.867-2.82 1.533-4.58 2v0c-1.32 0.36-2.813 0.623-4.48 0.79-1.667 0.16-3.533 0.24-5.6 0.24v0zM5.22 1.71h16.17c1.14 0 2.263-0.03 3.37-0.09 1.107-0.053 2.157-0.13 3.15-0.23 0.987-0.093 1.9-0.21 2.74-0.35 0.84-0.14 1.57-0.29 2.19-0.45v0c1.753-0.46 3.343-1.157 4.77-2.09 1.427-0.94 2.637-2.08 3.63-3.42 0.987-1.34 1.75-2.877 2.29-4.61 0.54-1.733 0.81-3.627 0.81-5.68v0c0-1.513-0.14-2.883-0.42-4.11-0.273-1.233-0.68-2.357-1.22-3.37-0.54-1.02-1.203-1.953-1.99-2.8-0.787-0.847-1.693-1.643-2.72-2.39v0c1.187 0.6 2.237 1.3 3.15 2.1 0.907 0.8 1.67 1.72 2.29 2.76 0.62 1.04 1.093 2.207 1.42 3.5 0.327 1.293 0.49 2.73 0.49 4.31v0c0 2.1-0.273 4.057-0.82 5.87-0.547 1.813-1.34 3.44-2.38 4.88-1.04 1.447-2.327 2.673-3.86 3.68-1.527 1.007-3.277 1.763-5.25 2.27v0c-1.38 0.34-3.03 0.617-4.95 0.83-1.92 0.213-4.15 0.32-6.69 0.32v0h-16.17zM15.77-3.91h7.57c2.407 0 4.44-0.21 6.1-0.63 1.66-0.427 3.003-1.077 4.03-1.95 1.027-0.88 1.767-2.003 2.22-3.37 0.46-1.367 0.69-3.003 0.69-4.91v0-0.9c0-1.86-0.233-3.463-0.7-4.81-0.46-1.353-1.213-2.477-2.26-3.37-1.04-0.9-2.403-1.563-4.09-1.99-1.68-0.433-3.75-0.65-6.21-0.65v0h-7.35zM17.48-5.37v-19.41h5.18c1.627 0 3 0.06 4.12 0.18 1.127 0.127 2.083 0.313 2.87 0.56 0.787 0.253 1.47 0.583 2.05 0.99 0.58 0.407 1.147 0.897 1.7 1.47v0c-0.6-0.373-1.23-0.703-1.89-0.99-0.66-0.287-1.407-0.523-2.24-0.71-0.827-0.187-1.777-0.33-2.85-0.43-1.08-0.093-2.333-0.14-3.76-0.14v0h-4.2v18.48zM5.13-23.85v-0.93h4.12v0.93zM50.42-15.19v0c0-1.347 0.173-2.68 0.52-4 0.347-1.32 0.877-2.573 1.59-3.76 0.707-1.187 1.59-2.29 2.65-3.31 1.053-1.013 2.29-1.89 3.71-2.63 1.413-0.74 3.01-1.32 4.79-1.74 1.787-0.413 3.747-0.62 5.88-0.62v0c1.133 0 2.263 0.09 3.39 0.27 1.12 0.18 2.197 0.427 3.23 0.74 1.033 0.32 2.01 0.707 2.93 1.16 0.92 0.46 1.74 0.967 2.46 1.52v0-2.84h5.54v8.79h-5.54c-0.52-0.827-1.203-1.593-2.05-2.3-0.847-0.713-1.807-1.32-2.88-1.82-1.08-0.507-2.253-0.903-3.52-1.19-1.267-0.28-2.583-0.42-3.95-0.42v0c-2.153 0-4.023 0.34-5.61 1.02-1.587 0.687-2.9 1.593-3.94 2.72-1.04 1.133-1.817 2.43-2.33 3.89-0.513 1.453-0.77 2.96-0.77 4.52v0c0 1.76 0.327 3.377 0.98 4.85 0.647 1.473 1.553 2.74 2.72 3.8 1.16 1.053 2.547 1.88 4.16 2.48 1.613 0.593 3.387 0.89 5.32 0.89v0c1.76 0 3.357-0.173 4.79-0.52 1.433-0.34 2.71-0.83 3.83-1.47 1.12-0.647 2.093-1.433 2.92-2.36 0.82-0.927 1.507-1.967 2.06-3.12v0l3.76 2.53c-1.513 2.9-3.723 5.1-6.63 6.6-2.907 1.493-6.557 2.24-10.95 2.24v0c-2.767 0-5.313-0.407-7.64-1.22-2.327-0.813-4.337-1.937-6.03-3.37-1.693-1.433-3.017-3.117-3.97-5.05-0.947-1.94-1.42-4.033-1.42-6.28zM83.03-18.97v-0.93h5.84v-9.25h0.97v10.18zM58.28-15.21v0c0-1.513 0.267-2.903 0.8-4.17 0.54-1.273 1.293-2.373 2.26-3.3 0.967-0.927 2.123-1.65 3.47-2.17 1.34-0.52 2.823-0.78 4.45-0.78v0c2.133 0 4.01 0.327 5.63 0.98 1.62 0.66 2.917 1.6 3.89 2.82v0c-1.413-0.993-2.913-1.72-4.5-2.18-1.587-0.467-3.29-0.7-5.11-0.7v0c-1.547 0-2.937 0.253-4.17 0.76-1.227 0.507-2.267 1.187-3.12 2.04-0.853 0.853-1.507 1.847-1.96 2.98-0.447 1.127-0.67 2.317-0.67 3.57v0c0 1.22 0.167 2.357 0.5 3.41 0.333 1.047 0.863 2.01 1.59 2.89 0.727 0.88 1.667 1.677 2.82 2.39 1.153 0.72 2.56 1.347 4.22 1.88v0c-1.527-0.207-2.913-0.603-4.16-1.19-1.247-0.587-2.307-1.327-3.18-2.22-0.88-0.9-1.56-1.94-2.04-3.12-0.48-1.18-0.72-2.477-0.72-3.89zM56.37-1.17v0c0.78 0.533 1.687 1.027 2.72 1.48 1.033 0.447 2.127 0.827 3.28 1.14 1.147 0.32 2.333 0.567 3.56 0.74 1.227 0.167 2.427 0.25 3.6 0.25v0c2.087 0 4.07-0.18 5.95-0.54 1.88-0.353 3.603-0.877 5.17-1.57 1.573-0.693 2.96-1.547 4.16-2.56 1.207-1.02 2.177-2.18 2.91-3.48v0l0.85 0.51c-0.747 1.353-1.737 2.563-2.97 3.63-1.24 1.06-2.677 1.957-4.31 2.69-1.64 0.733-3.457 1.293-5.45 1.68-1.993 0.38-4.113 0.57-6.36 0.57v0c-1.287 0-2.563-0.093-3.83-0.28-1.267-0.187-2.477-0.473-3.63-0.86-1.147-0.38-2.203-0.85-3.17-1.41-0.967-0.56-1.793-1.223-2.48-1.99z" fill="#fe0039" fill-rule="nonzero" stroke="none" stroke-width="1" stroke-linecap="butt" stroke-linejoin="miter" stroke-miterlimit="10" stroke-dasharray="" stroke-dashoffset="0" font-family="none" font-weight="none" font-size="none" text-anchor="none" style="mix-blend-mode: normal" data-fill-palette-color="primary" opacity="1"></path></g></svg></g></svg></g></svg></g></svg></g></svg></g><defs></defs></svg><rect width="395.52" height="172.64840158640226" fill="none" stroke="none" visibility="hidden"></rect></g></svg>
